Coordinates
version=1
nRows=7
nColumns=63
inDegrees=yes

Units are S.I. units (second, meters, Newtons, ...)
If the header above contains a line with 'inDegrees', this indicates whether rotational values are in degrees (yes) or radians (no).

endheader
time	pelvis_tilt	pelvis_list	pelvis_rotation	pelvis_tx	pelvis_ty	pelvis_tz	hip_flexion_r	hip_adduction_r	hip_rotation_r	knee_angle_r	knee_angle_r_beta	ankle_angle_r	subtalar_angle_r	mtp_angle_r	hip_flexion_l	hip_adduction_l	hip_rotation_l	knee_angle_l	knee_angle_l_beta	ankle_angle_l	subtalar_angle_l	mtp_angle_l	L5_S1_Flex_Ext	L5_S1_Lat_Bending	L5_S1_axial_rotation	L4_L5_Flex_Ext	L4_L5_Lat_Bending	L4_L5_axial_rotation	L3_L4_Flex_Ext	L3_L4_Lat_Bending	L3_L4_axial_rotation	L2_L3_Flex_Ext	L2_L3_Lat_Bending	L2_L3_axial_rotation	L1_L2_Flex_Ext	L1_L2_Lat_Bending	L1_L2_axial_rotation	L1_T12_Flex_Ext	L1_T12_Lat_Bending	L1_T12_axial_rotation	Abs_r3	Abs_r2	Abs_r1	Abs_t1	Abs_t2	neck_flexion	neck_bending	neck_rotation	arm_flex_r	arm_add_r	arm_rot_r	elbow_flex_r	pro_sup_r	wrist_flex_r	wrist_dev_r	arm_flex_l	arm_add_l	arm_rot_l	elbow_flex_l	pro_sup_l	wrist_flex_l	wrist_dev_l
      0.96226415	     -6.68876738	    -10.14772591	     75.44551488	      0.21974395	      1.00282205	      0.44630082	     17.75890396	     -3.09948574	     16.53837401	     18.00602758	      0.31426447	     35.67680554	     -3.85605845	      0.00000000	     12.29608364	      1.51598661	    -17.61671305	     12.92977662	      0.22566717	     33.72092594	      2.06062663	      0.00000000	     -0.04376538	     -0.62418141	      1.63223394	     -0.08127669	     -0.83016127	      1.73424856	     -0.07190215	     -1.51763467	      1.73424856	     -0.05001946	     -1.51763467	      1.42820469	     -0.04064053	     -1.27283072	      1.32619007	     -0.02500754	     -0.96685700	      1.22417545	     -0.31261175	     -7.06086490	      9.07799548	      0.00000000	      0.00000000	     24.49165874	     -1.08741741	     -1.06716679	     19.72830172	     -9.69981605	     23.20936701	    115.73852674	     72.35587198	     13.74765044	     18.44450530	    -19.28207685	    -25.96811248	     15.27447942	     97.85902150	     88.60807822	     -4.89169265	      4.77868355
      0.98113208	     -6.75711835	    -10.35410693	     73.97464301	      0.22243835	      1.00254728	      0.44545908	     17.92838399	     -2.73271838	     17.06281892	     17.46765675	      0.30486812	     35.53937329	     -3.47196383	      0.00000000	     12.50147271	      1.20429455	    -17.81730035	     13.43478782	      0.23448128	     33.50108083	      1.08824840	      0.00000000	     -0.03564602	     -0.59401445	      1.48457960	     -0.06619823	     -0.79003922	      1.57736582	     -0.05856285	     -1.44428674	      1.57736582	     -0.04073984	     -1.44428674	      1.29900715	     -0.03310089	     -1.21131427	      1.20622092	     -0.02036814	     -0.92012839	      1.11343470	     -0.25461596	     -6.71961030	      8.25678635	      0.00000000	      0.00000000	     23.89638350	     -0.42305549	     -0.92574687	     25.62933348	     -6.13581297	     26.79245223	    113.69439297	     68.11165527	     14.49736836	     18.34108093	    -25.69479922	    -24.47243417	     10.87897702	     97.25896390	     88.62554374	     -4.09100960	      5.54469130
      1.00000000	     -6.37442871	    -10.54943147	     73.00928789	      0.22439975	      1.00305957	      0.44366790	     17.51810654	     -2.19510552	     16.93545363	     16.32556222	      0.28493481	     35.02740596	     -2.80858975	      0.00000000	     12.56138244	      0.63934951	    -16.99942216	     14.00765510	      0.24447970	     33.24352630	     -0.67898224	      0.00000000	     -0.01088785	     -0.52539945	      1.33453968	     -0.02021982	     -0.69878127	      1.41794841	     -0.01788764	     -1.27745623	      1.41794841	     -0.01244372	     -1.27745623	      1.16772222	     -0.01011045	     -1.07139457	      1.08431349	     -0.00622132	     -0.81384376	      1.00090476	     -0.07777080	     -5.94342371	      7.42230933	      0.00000000	      0.00000000	     22.44621823	     -0.06551463	     -1.50521722	     28.67669511	     -4.09676455	     29.86229815	    112.81730264	     63.22190137	     14.31309778	     18.82385145	    -30.90896100	    -22.09478088	      6.13484921	     97.58840593	     88.59937276	     -1.53419691	      5.99593069
      1.01886792	     -5.92044156	    -10.53013364	     71.88567631	      0.22705253	      1.00453625	      0.44153138	     16.65309532	     -1.64285271	     17.18676995	     14.84413284	      0.25907899	     34.23457373	     -2.02953415	      0.00000000	     12.28818676	     -0.07089346	    -17.29808463	     14.57941259	      0.25445875	     33.08625702	     -1.39977117	      0.00000000	      0.01770611	     -0.48034817	      1.32386328	      0.03288202	     -0.63886306	      1.40660473	      0.02908937	     -1.16791853	      1.40660473	      0.02023632	     -1.16791853	      1.15838037	      0.01644190	     -0.97952598	      1.07563891	      0.01011727	     -0.74405931	      0.99289746	      0.12647299	     -5.43379453	      7.36293040	      0.00000000	      0.00000000	     20.14262465	      0.20366436	     -3.18048306	     28.80998547	     -3.63078282	     31.57157776	    113.31853462	     62.99581053	     13.98385275	     19.06089321	    -34.40660145	    -20.45540896	      3.01149291	     99.36030601	     88.34413950	     -2.09056376	      5.32032836
      1.03773585	     -5.58261919	    -10.39487973	     71.37861004	      0.22874765	      1.00634278	      0.43987603	     15.80035795	     -1.43325190	     16.92482247	     13.66283548	      0.23846146	     33.59004285	     -0.98219708	      0.00000000	     11.97402805	     -0.41103873	    -16.81499275	     14.92309301	      0.26045711	     32.59991233	     -2.72790264	      0.00000000	      0.03168336	     -0.46378080	      1.10723269	      0.05883917	     -0.61682846	      1.17643473	      0.05205259	     -1.12763663	      1.17643473	      0.03621091	     -1.12763663	      0.96882860	      0.02942117	     -0.94574180	      0.89962656	      0.01810387	     -0.71839646	      0.83042451	      0.22631106	     -5.24638115	      6.15809603	      0.00000000	      0.00000000	     18.56272082	      0.55322983	     -4.00196445	     27.51243189	     -4.76140087	     33.76502189	    114.32202449	     62.83324903	     11.86298763	     18.96907268	    -37.10509121	    -18.32319548	     -0.88734120	    102.44348167	     88.25101502	     -2.00477520	      3.15740046
      1.05660377	     -5.01323789	    -10.21566386	     70.92733325	      0.23020184	      1.00841346	      0.43842507	     14.69945726	     -1.03577546	     17.14684804	     12.21858597	      0.21325456	     32.69499286	     -0.13867440	      0.00000000	     11.63416205	     -1.03344174	    -16.90633301	     15.40271806	      0.26882814	     32.51402606	     -3.40442784	      0.00000000	      0.04274495	     -0.43566858	      1.04676410	      0.07938164	     -0.57943920	      1.11218686	      0.07022567	     -1.05928457	      1.11218686	      0.04885320	     -1.05928457	      0.91591859	      0.03969296	     -0.88841536	      0.85049583	      0.02442446	     -0.67485062	      0.78507308	      0.30532288	     -4.92837006	      5.82178790	      0.00000000	      0.00000000	     17.42957481	      1.09958753	     -5.36664113	     23.92065742	     -7.60284225	     34.28178008	    115.72996399	     64.28724416	     11.82596614	     19.16044157	    -37.75873755	    -17.50201448	     -2.89638087	    106.35081206	     87.94067285	     -2.41995518	      1.36170570
      1.07547170	     -4.48811513	    -10.11874597	     71.25159156	      0.23009728	      1.01015795	      0.43725709	     13.82985858	     -0.88739052	     16.30085023	     11.10776353	      0.19386705	     32.12388811	      1.23667542	      0.00000000	     11.63181327	     -1.29113707	    -15.08166710	     15.86918324	      0.27696950	     32.14036787	     -6.04837222	      0.00000000	      0.04204269	     -0.41100898	      1.05233997	      0.07807747	     -0.54664194	      1.11811122	      0.06907193	     -0.99932723	      1.11811122	      0.04805059	     -0.99932723	      0.92079747	      0.03904084	     -0.83812951	      0.85502622	      0.02402319	     -0.63665291	      0.78925498	      0.30030671	     -4.64941577	      5.85279920	      0.00000000	      0.00000000	     17.73302439	      0.60389736	     -7.78916695	     17.92313996	    -11.90888296	     33.11449602	    117.70279243	     76.96963097	     10.97187879	     16.16892127	    -36.27853721	    -18.44426664	     -2.27929428	    110.09384327	     87.77120160	     -5.27902446	     -3.80704111
